<svg xmlns="http://www.w3.org/2000/svg" version="1.1" xmlns:xlink="http://www.w3.org/1999/xlink" width="1077" height="992"><svg width="1077" height="992" viewBox="0 0 1077 992" fill="none" xmlns="http://www.w3.org/2000/svg">
<path d="M215.745 545.219L539.217 868.691L539.217 990.079L155.051 605.912L215.745 545.219Z" fill="#106CEC" stroke="#106CEC"></path>
<path d="M579.223 165.308C562.463 148.548 535.29 148.548 518.53 165.308L232.104 451.733C215.613 468.225 215.31 494.867 231.422 511.729C248.061 529.142 275.768 529.457 292.798 512.427L579.223 226.002C595.983 209.241 595.983 182.068 579.223 165.308Z" fill="#106CEC" stroke="#106CEC"></path>
<path d="M863.717 545.219L540.245 868.691L540.245 990.079L924.411 605.912L863.717 545.219Z" fill="#106CEC" stroke="#106CEC"></path>
<path d="M187.344 577.511C-12.3704 402.213 155.972 51.9031 431.343 140.08" stroke="#106CEC" stroke-width="86.83" stroke-linecap="round"></path>
<path d="M891.678 577.356C1129.73 338.684 830.854 -18.2588 548.344 196.011" stroke="#106CEC" stroke-width="86.83"></path>
<path d="M214.566 713.667C218.268 717.411 220.344 722.464 220.344 727.729V886.299C220.344 886.745 220.881 886.969 221.197 886.656C221.291 886.563 221.418 886.511 221.55 886.511H381.924C387.309 886.511 392.465 888.682 396.228 892.533L443.137 940.533C455.514 953.197 446.541 974.511 428.834 974.511H152.344C141.298 974.511 132.344 965.557 132.344 954.511V679.184C132.344 661.311 153.999 652.413 166.566 665.122L214.566 713.667Z" fill="#106CEC"></path>
<path d="M863.122 713.667C859.42 717.411 857.344 722.464 857.344 727.729V886.299C857.344 886.745 856.807 886.969 856.49 886.656C856.396 886.563 856.27 886.511 856.138 886.511H695.763C690.379 886.511 685.222 888.682 681.459 892.533L634.55 940.533C622.174 953.197 631.146 974.511 648.854 974.511H925.344C936.389 974.511 945.344 965.557 945.344 954.511V679.184C945.344 661.311 923.688 652.413 911.122 665.122L863.122 713.667Z" fill="#106CEC"></path>
</svg><style>@media (prefers-color-scheme: light) { :root { filter: none; } }
@media (prefers-color-scheme: dark) { :root { filter: none; } }
</style></svg>